# xmcd
#
# Track frame offsets:
#	150
#	20203
#	37564
#	54507
#	75092
#	96665
#	114761
#	130959
#	151173
#	170070
#	193320
#	208396
#	229249
#	244080
#	291911
#	311832
#
# Disc length: 4741 seconds
#
# Revision: 0
# Processed by: cddbd v1.5.2PL0 Copyright (c) Steve Scherf et al.
# Submitted via: EasyCDDAExtractor 2010.6.0.0
#
DISCID=e0128310
DTITLE=Jimmy Somerville - Dare To Love (Deluxe Edition) CD1
DYEAR=2012
DGENRE=Pop
TTITLE0=Heartbeat
TTITLE1=Hurts So Good
TTITLE2=Cry
TTITLE3=Lovething
TTITLE4=By Your Side
TTITLE5=Dare To Love
TTITLE6=Someday We´ll Be Together
TTITLE7=Alright
TTITLE8=Too Much Of A Good Thing
TTITLE9=A Dream Gone Wrong
TTITLE10=Come Lately
TTITLE11=Safe In These Arms
TTITLE12=Because Of Him
TTITLE13=Heartbeat (E-Smoove 12" Mix)
TTITLE14=Hurts So Good (12" Beatmasters Lovers Mix)
TTITLE15=By Your Side (The Shining Mix)
EXTD=
EXTT0=
EXTT1=
EXTT2=
EXTT3=
EXTT4=
EXTT5=
EXTT6=
EXTT7=
EXTT8=
EXTT9=
EXTT10=
EXTT11=
EXTT12=
EXTT13=
EXTT14=
EXTT15=
PLAYORDER=
